# xmcd
#
# Track frame offsets:
#	150
#	14812
#	25017
#	39495
#	50015
#	66862
#	81855
#	93162
#	104765
#	117380
#
# Disc length: 1781 seconds
#
# Revision: 1
# Processed by: cddbd v1.5.2PL0 Copyright (c) Steve Scherf et al.
# Submitted via: audiograbber 1.83.01
#
DISCID=8506f30a
DTITLE=ELDORADO - ROMANTICUMBIAS
DYEAR=1994
DGENRE=CUMBIA
TTITLE0=SIN TI
TTITLE1=LO DUDO
TTITLE2=ECHAME LA CULPA
TTITLE3=VAGABUNDO
TTITLE4=LA HIEDRA
TTITLE5=SABOR A MI
TTITLE6=ENTREGA TOTAL
TTITLE7=UNA LIMOSNA
TTITLE8=MI JURAMENTO
TTITLE9=ESCLAVO Y AMO
EXTD=
EXTT0=
EXTT1=
EXTT2=
EXTT3=
EXTT4=
EXTT5=
EXTT6=
EXTT7=
EXTT8=
EXTT9=
PLAYORDER=
